<?xml version="1.0" encoding="UTF-8"?>
<svg id="Layer_1" xmlns="http://www.w3.org/2000/svg" viewBox="0 0 279.54 272.62">
  <defs>
    <style>
      .cls-1 {
        fill: #231f20;
        stroke: #fff;
        stroke-miterlimit: 10;
      }
    </style>
  </defs>
  <path class="cls-1" d="M140.76,72.04L200.18.97c.86-1.03,2.53-.23,2.26,1.09l-18.52,90.77c-.16.79.43,1.54,1.24,1.55l92.61,2.14c1.34.03,1.76,1.84.56,2.45l-82.51,42.11c-.72.37-.93,1.29-.44,1.94l56.07,73.74c.81,1.07-.34,2.52-1.57,1.96l-84.37-38.25c-.74-.33-1.59.08-1.79.86l-22.69,89.81c-.33,1.3-2.18,1.3-2.51,0l-22.69-89.81c-.2-.78-1.06-1.2-1.79-.86l-84.37,38.25c-1.22.56-2.38-.89-1.57-1.96l56.07-73.74c.49-.64.28-1.57-.44-1.94L1.21,98.97c-1.2-.61-.79-2.42.56-2.45l92.61-2.14c.81-.02,1.4-.76,1.24-1.55L77.1,2.06c-.27-1.32,1.4-2.12,2.26-1.09l59.42,71.07c.52.62,1.47.62,1.99,0Z"/>
</svg>